# xmcd
#
# Track frame offsets: 
#        150
#        9141
#        20163
#        31652
#        40350
#        49559
#        59966
#        69501
#        78040
#        88740
#        98704
#        106466
#        117822
#        129137
#        140154
#        151784
#        162950
#        170063
#        179637
#        192763
#        206025
#        219596
#        229656
#        241854
#        249504
#
# Disc length: 3464 seconds
#
# Revision: 3
# Processed by: cddbd v1.5.2PL0 Copyright (c) Steve Scherf et al.
# Submitted via: ExactAudioCopyFreeDBPlugin 1.0
#
DISCID=510d8619
DTITLE=Various Artist - Allen Toussaint:  Everything I Do Gonh Be Fun
DTITLE=ky (The Hit Songs and Productions 1957-1978)
DYEAR=2011
DGENRE=Rhythm and Blues
TTITLE0=Fats Domino - I Want You to Know
TTITLE1=Lee Allen - Walkin' with Mr. Lee
TTITLE2=Lee Allen - Tic Toc
TTITLE3=Fats Domino - Young Schoolgirl
TTITLE4=Fats Domino - I'm Gonna Be a Wheel Someday
TTITLE5=Al Touson - Whirlaway
TTITLE6=Al Touson - Happy Times
TTITLE7=Al Touson - Java
TTITLE8=Al Touson - Wham Tousan
TTITLE9=Al Touson - Naomi
TTITLE10=Al Touson - Moo Moo
TTITLE11=Allen and Allen - Beverly Baby
TTITLE12=Allen and Allen - Heavenly Baby
TTITLE13=Allen and Allen - Tiddle Winks
TTITLE14=The Stokes - Whipped Cream
TTITLE15=The Stokes - Pie Crust
TTITLE16=The Stokes - Banana Split
TTITLE17=The Stokes - Fat Cat
TTITLE18=The Stokes - Young Man Old Man
TTITLE19=Allen Toussaint and The Stokes - Poor Boy Got to Move
TTITLE20=Allen Toussaint and The Stokes - Go Back Home
TTITLE21=Rubyiats - Omar Khayyam
TTITLE22=Rubyiats - Tomorrow
TTITLE23=Willie and Allen - Baby Do Liddle
TTITLE24=Willie and Allen - I Don't Need One
EXTD=
EXTT0=
EXTT1=
EXTT2=
EXTT3=
EXTT4=
EXTT5=
EXTT6=
EXTT7=
EXTT8=
EXTT9=
EXTT10=
EXTT11=
EXTT12=
EXTT13=
EXTT14=
EXTT15=
EXTT16=
EXTT17=
EXTT18=
EXTT19=
EXTT20=
EXTT21=
EXTT22=
EXTT23=
EXTT24=
PLAYORDER=
